<svg width="30" height="30" viewBox="0 0 30 30" fill="none" xmlns="http://www.w3.org/2000/svg">
<path d="M15.0043 0C17.2702 0.00130914 19.5063 0.515632 21.545 1.50437C23.5836 2.49312 25.3717 3.9306 26.7752 5.70894C28.1787 7.48729 29.161 9.56031 29.6486 11.7724C30.1361 13.9846 30.1161 16.2784 29.5902 18.4817C29.0642 20.685 28.0459 22.7407 26.6117 24.4943C25.1775 26.248 23.3646 27.6542 21.3091 28.6073C19.2536 29.5604 17.0089 30.0358 14.7433 29.9977C12.4778 29.9596 10.2503 29.409 8.228 28.3873L8.00106 28.2655L1.16471 29.9717C1.03314 30.0048 0.895966 30.0089 0.762641 29.9838C0.629317 29.9588 0.503023 29.9051 0.392473 29.8265C0.281923 29.7478 0.18975 29.6462 0.122315 29.5285C0.0548799 29.4108 0.0137879 29.2799 0.00187541 29.1448V28.9911L0.0281333 28.8355L1.73488 22.003L1.61672 21.778C0.76057 20.0881 0.23236 18.2513 0.0600175 16.3649L0.0131287 15.6487L0 14.9999C0 11.0217 1.58081 7.2064 4.39467 4.39337C7.20853 1.58034 11.0249 0 15.0043 0ZM15.9421 16.8749H10.3155L10.1467 16.8899C9.93046 16.929 9.73486 17.0428 9.59401 17.2114C9.45315 17.38 9.37599 17.5927 9.37599 17.8124C9.37599 18.0321 9.45315 18.2448 9.59401 18.4134C9.73486 18.582 9.93046 18.6958 10.1467 18.7349L10.3155 18.7499H15.9421L16.1109 18.7349C16.3271 18.6958 16.5227 18.582 16.6636 18.4134C16.8044 18.2448 16.8816 18.0321 16.8816 17.8124C16.8816 17.5927 16.8044 17.38 16.6636 17.2114C16.5227 17.0428 16.3271 16.929 16.1109 16.8899L15.9421 16.8749ZM19.6932 11.2499H10.3155L10.1467 11.2649C9.93046 11.3041 9.73486 11.4179 9.59401 11.5865C9.45315 11.7551 9.37599 11.9678 9.37599 12.1874C9.37599 12.4071 9.45315 12.6198 9.59401 12.7884C9.73486 12.957 9.93046 13.0708 10.1467 13.1099L10.3155 13.1249H19.6932L19.862 13.1099C20.0782 13.0708 20.2738 12.957 20.4147 12.7884C20.5555 12.6198 20.6327 12.4071 20.6327 12.1874C20.6327 11.9678 20.5555 11.7551 20.4147 11.5865C20.2738 11.4179 20.0782 11.3041 19.862 11.2649L19.6932 11.2499Z" fill="#A0A0A0"/>
</svg>
